<svg width="600" height="200" viewBox="0 0 600 200" xmlns="http://www.w3.org/2000/svg">
  <defs>
    <linearGradient id="mainLeaf" x1="0%" y1="0%" x2="0%" y2="100%">
      <stop offset="0%" style="stop-color:#66BB6A;stop-opacity:1" />
      <stop offset="100%" style="stop-color:#2E7D32;stop-opacity:1" />
    </linearGradient>
  </defs>

  <g transform="translate(20, 30)">
    <path d="M60 10 C60 10 110 50 110 100 C110 150 60 160 60 160 Z" fill="url(#mainLeaf)" />
    <path d="M60 10 C60 10 10 50 10 100 C10 150 60 160 60 160 Z" fill="#43A047" />
    
    <path d="M60 15 L60 155" stroke="white" stroke-width="2" stroke-linecap="round" opacity="0.2"/>
    
    <circle cx="85" cy="110" r="16" fill="#FF9800" stroke="white" stroke-width="3"/>
    
    <circle cx="40" cy="130" r="10" fill="#E53935" stroke="white" stroke-width="2"/>
    
    <circle cx="55" cy="80" r="8" fill="#FDD835" stroke="white" stroke-width="2"/>
    
    <path d="M30 50 C35 40 45 35 45 35" stroke="white" stroke-width="3" fill="none" stroke-linecap="round" opacity="0.5" />
  </g>

  <text x="165" y="115" font-family="Segoe UI, Roboto, Helvetica, Arial, sans-serif" font-weight="800" font-size="62" fill="#2d2d2d">
    Khao<tspan fill="#4CAF50">Fresh</tspan>
  </text>
  
  <text x="170" y="155" font-family="Segoe UI, sans-serif" font-weight="600" font-size="20" letter-spacing="3" fill="#888888" >
     RAHO TAAZA
  </text>
</svg>